<svg width='40' height='40' viewBox='0 0 40 40'  fill="none" xmlns="http://www.w3.org/2000/svg">
    <g clip-path="url(#clip0)">
        <path d="M38.0001 40H8.20302C6.89166 40 5.83008 38.9372 5.83008 37.6244V2.86533C5.83008 1.28158 7.11022 0 8.68177 0H30.4337C31.0374 0 31.6098 0.239646 32.0365 0.656421L37.6983 6.23079C37.8856 6.41834 37.9897 6.6684 37.9897 6.92889V40H38.0001Z" fill="url(#paint0_linear)" />
        <path d="M31.3702 4.34034e-05C31.5367 0.270947 31.8489 0.343883 32.0675 0.56269C33.8888 2.40692 35.7102 4.23031 37.5523 6.0537C37.875 6.36628 38.0207 6.72054 37.9895 7.15816C35.9287 7.15816 33.8576 7.15816 31.7969 7.15816C31.162 7.15816 30.9019 6.90809 30.9019 6.26209C30.9019 4.1678 30.9019 2.0735 30.9019 -0.010376C31.0684 4.34034e-05 31.2141 4.34034e-05 31.3702 4.34034e-05Z" fill="#E3E3E3" />
        <path d="M26.4579 15.5978C27.2385 15.5666 28.0191 15.6187 28.7684 15.8375C29.3616 16.0146 29.9028 16.3064 30.0277 16.9732C30.163 17.64 29.8716 18.2131 29.3616 18.6195C28.7476 19.1196 28.0503 19.0362 27.3738 18.7549C26.5412 18.4007 25.8335 17.8484 25.1778 17.2337C24.9384 17.0045 24.7094 16.9211 24.3556 16.9628C22.7736 17.1503 21.2125 17.4212 19.6617 17.838C19.3807 17.9109 19.1934 18.0464 19.0477 18.3069C18.5481 19.1925 17.9965 20.0365 17.3096 20.7867C16.8829 21.2556 16.4354 21.6932 15.7901 21.8182C15.1136 21.9537 14.5932 21.6723 14.2289 21.1201C13.8543 20.547 13.8439 19.9531 14.1873 19.3592C14.5724 18.7028 15.1864 18.3173 15.8317 17.9735C16.5186 17.5984 17.2367 17.3066 17.9757 17.0774C18.2463 16.994 18.4128 16.8586 18.5377 16.5981C19.3183 15.0144 20.0052 13.3889 20.5568 11.7114C20.6296 11.4926 20.6088 11.3259 20.5047 11.1279C19.9948 10.1589 19.5681 9.16908 19.4224 8.06463C19.2662 6.90808 20.0468 6.01201 21.2021 6.02243C21.9306 6.03285 22.451 6.52256 22.5759 7.30401C22.7216 8.16882 22.5446 9.01279 22.3885 9.84634C22.3261 10.1798 22.2845 10.5236 22.1492 10.8258C21.993 11.1904 22.1075 11.4613 22.2949 11.7531C23.1379 13.0555 24.0642 14.285 25.1153 15.4207C25.2298 15.5457 25.3443 15.6083 25.5212 15.5978C25.8335 15.5874 26.1457 15.5978 26.4579 15.5978ZM20.0468 16.4522C21.2853 16.1396 22.4614 15.9521 23.7103 15.7541C22.8985 14.8164 22.2116 13.8891 21.5143 12.8784C21.0772 14.1287 20.588 15.254 20.0468 16.4522ZM17.2263 18.7341C16.5394 19.005 15.8838 19.3176 15.3842 19.8802C15.2281 20.0573 15.1656 20.2761 15.353 20.4741C15.5403 20.6929 15.7172 20.5054 15.8629 20.4116C16.4562 19.974 16.8621 19.3801 17.2263 18.7341ZM26.6661 16.8586C27.1864 17.2649 27.6548 17.5567 28.2064 17.6817C28.4562 17.7338 28.6435 17.6296 28.7164 17.39C28.7892 17.1295 28.5498 17.0878 28.3937 17.0461C27.8629 16.869 27.3217 16.8169 26.6661 16.8586ZM21.1396 9.52334C21.2957 8.86692 21.3686 8.29385 21.3374 7.71037C21.327 7.54366 21.3686 7.32485 21.0876 7.32485C20.8274 7.32485 20.7233 7.47072 20.7129 7.72079C20.6713 8.33553 20.8482 8.89818 21.1396 9.52334Z" fill="#E06079" />
        <path d="M3.25925 24.4752C2.69724 24.1834 2.28093 23.7354 2.02074 23.1519C1.9687 22.631 1.9687 22.11 2.24971 21.6411C2.63479 20.9951 3.21762 20.6825 3.95656 20.6721C4.58102 20.6617 5.19507 20.6721 5.81953 20.6721C5.82994 21.9641 5.84034 23.2561 5.85075 24.5481C4.99733 24.5377 4.12308 24.6211 3.25925 24.4752Z" fill="#B13B4C" />
        <path d="M25.1466 26.0901C25.1466 25.0065 24.699 24.5481 23.6166 24.5481C18.2983 24.5481 12.98 24.5481 7.66174 24.5481C7.49522 24.5481 7.32869 24.5376 7.16217 24.5272C6.72505 24.5376 6.29834 24.5376 5.86122 24.5481C4.99738 24.5376 4.12314 24.621 3.25931 24.4751C2.6973 24.1834 2.28099 23.7353 2.0208 23.1519C2.01039 23.204 1.99999 23.256 1.99999 23.3081C1.99999 26.9549 1.98958 30.5913 1.99999 34.2381C1.99999 35.28 2.79097 36.0719 3.84214 36.1136C4.49782 36.1448 5.16391 36.1344 5.81959 36.1344C6.26712 36.1344 6.70424 36.1344 7.15176 36.1344C7.31829 36.1344 7.48481 36.124 7.66174 36.124C12.928 36.124 18.1943 36.124 23.4605 36.124C23.6166 36.124 23.7727 36.1136 23.9289 36.124C24.5221 36.1448 25.1882 35.5509 25.1362 34.8528C25.1362 34.7278 25.1466 34.5924 25.1466 34.4673C25.1466 31.6749 25.1466 28.8825 25.1466 26.0901Z" fill="url(#paint1_linear)" />
        <path d="M6.23584 28.0281C6.23584 27.6322 6.47522 27.3717 6.89152 27.3717H8.37981C9.60792 27.3717 10.5238 28.174 10.5238 29.3826C10.5238 30.6121 9.57669 31.3727 8.43185 31.3727H7.50557V32.7481C7.50557 33.1649 7.23497 33.4045 6.88111 33.4045C6.51685 33.4045 6.25666 33.1649 6.25666 32.7481V28.0281H6.23584ZM7.49516 30.2579H8.34859C8.87938 30.2579 9.21243 29.8724 9.21243 29.3722C9.21243 28.8721 8.87938 28.4866 8.34859 28.4866H7.49516V30.2579Z" fill="white" />
        <path d="M10.8984 28.0177C10.8984 27.6322 11.169 27.3717 11.5437 27.3717H12.9383C14.8221 27.3717 15.8941 28.5804 15.8941 30.4454C15.8941 32.2063 14.7493 33.3524 13.0216 33.3524H11.5645C11.2835 33.3524 10.8984 33.1961 10.8984 32.7273V28.0177ZM12.1578 32.1959H13.0008C14.0832 32.1959 14.5827 31.3936 14.5827 30.3933C14.5827 29.3201 14.0832 28.5387 12.9175 28.5387H12.1578V32.1959Z" fill="white" />
        <path d="M16.4978 28.0281C16.4978 27.6843 16.7372 27.3717 17.1535 27.3717H19.2975C19.6617 27.3717 19.8595 27.653 19.8595 27.9552C19.8595 28.2365 19.6721 28.5387 19.2975 28.5387H17.7571V29.7682H19.0581C19.464 29.7682 19.6617 30.0495 19.6617 30.3412C19.6617 30.633 19.464 30.9247 19.0581 30.9247H17.7571V32.7585C17.7571 33.1753 17.4865 33.4149 17.1327 33.4149C16.7684 33.4149 16.5082 33.1753 16.5082 32.7585V28.0281H16.4978Z" fill="white" />
    </g>
    <defs>
        <linearGradient id="paint0_linear" x1="3.75731" y1="36.0128" x2="38.3594" y2="7.01091" gradientUnits="userSpaceOnUse">
            <stop offset="1.61469e-07" stop-color="#E3E3E3" />
            <stop offset="0.9994" stop-color="#F2F2F2" />
        </linearGradient>
        <linearGradient id="paint1_linear" x1="4.02158" y1="37.3322" x2="22.3356" y2="21.9823" gradientUnits="userSpaceOnUse">
            <stop stop-color="#DA3D55" />
            <stop offset="0.9994" stop-color="#E06079" />
        </linearGradient>
        <clipPath id="clip0">
            <rect width='40' height='40' fill="white" />
        </clipPath>
    </defs>
</svg>